<?xml version="1.0" encoding="UTF-8" standalone="no"?>
<!-- Created with Inkscape (http://www.inkscape.org/) -->
<svg id="svg2" xmlns:rdf="http://www.w3.org/1999/02/22-rdf-syntax-ns#" xmlns="http://www.w3.org/2000/svg" height="16730" viewBox="0 0 17337.164 16729.576" width="17337" version="1.1" xmlns:cc="http://creativecommons.org/ns#" xmlns:dc="http://purl.org/dc/elements/1.1/">
 <metadata id="metadata7">
  <rdf:RDF>
   <cc:Work rdf:about="">
    <dc:format>image/svg+xml</dc:format>
    <dc:type rdf:resource="http://purl.org/dc/dcmitype/StillImage"/>
    <dc:title/>
   </cc:Work>
  </rdf:RDF>
 </metadata>
 <g id="layer1" transform="matrix(0 -1 1 0 -14462 31733)">
  <g id="g4227" fill="#501616" stroke="#501616" transform="matrix(442.99,0,0,279.65,-201870,-150870)">
   <g id="g4231" stroke-width="1.25" stroke="#3c3129" fill="#3c3129">
    <path id="path4184" style="color-rendering:auto;color:#000000;isolation:auto;mix-blend-mode:normal;shape-rendering:auto;solid-color:#000000;image-rendering:auto" d="m508.98 615.07c0.0258 11.697 0.94641 23.367 1.3129 35.055 0.59657 1.6144-1.3033 0.86282-2.2296 1.0346-1.9921 0.006-3.9842 0.0115-5.9764 0.0173-0.003-12.049-0.94895-24.069-1.339-36.107 2.744-0.00002 5.4881 0.00004 8.232-0.00003z"/>
    <path id="path4186" style="color-rendering:auto;color:#000000;isolation:auto;mix-blend-mode:normal;shape-rendering:auto;solid-color:#000000;image-rendering:auto" d="m490.21 617.57c4.1924-6.3984 8.3026-12.901 11.52-19.853 1.409-1.8455-0.10691-6.0132 3.328-4.9333 2.8666 0.23098 7.4174-1.1999 7.6874 2.9207 2.2468 5.8186 4.5781 11.635 7.9041 16.94 1.7642 2.962 3.4281 6.0663 6.0573 8.374l-8.2151 0.64469c-3.7137-3.8538-6.0212-8.7651-8.647-13.366-2.5107-4.4556-3.8081-9.4809-6.2194-13.967-1.3127-1.5044 2.7622-0.82968 3.5985-1.1602 1.8162 0.15382 4.9421-1.1358 3.6319 1.7186-0.82794 4.2367-3.3663 7.8761-5.4142 11.608-2.2625 3.8876-4.6056 7.7275-6.9592 11.56l-8.2725-0.48698z"/>
   </g>
  </g>
 </g>
</svg>
